# xmcd CD database file
#
# Track frame offsets:
#	182
#	16020
#	28412
#	40390
#	49452
#	63530
#	90900
#	99840
#	116652
#	133390
#	188752
#
# Disc length: 2654 seconds
#
# Revision: 0
# Processed by: cddbd v1.4PL0 Copyright (c) Steve Scherf et al.
# Submitted via: Feurio! 1.65 - http://www.feurio.com
#
DISCID=940a5c0b
DTITLE=Cuby and Blizzards - Forgotten Tapes
DYEAR=1900
DGENRE=Blues
TTITLE0=L.S.D. (Got A Million Dollars)
TTITLE1=Richard Cory
TTITLE2=Feeling Like A Suitcase
TTITLE3=Because Of Illness
TTITLE4=Woman
TTITLE5=On The Road
TTITLE6=Stepping In My Shoes
TTITLE7=You Don't Know
TTITLE8=Session
TTITLE9=That's Allright
TTITLE10=Your Body, Not Your Soul
EXTD=feat. Herman Brood, Harry "Cuby" Muskee, Eelco Gelling, Rob Hoeke
EXTT0=
EXTT1=
EXTT2=
EXTT3=
EXTT4=
EXTT5=
EXTT6=
EXTT7=
EXTT8=
EXTT9=
EXTT10=
PLAYORDER=
